<?xml version="1.0" encoding="utf-8"?>
<svg xmlns="http://www.w3.org/2000/svg" fill="none" height="24" viewBox="0 0 24 24" width="24">
<g clip-path="url(#clip0_2526_16770)">
<path d="M18.4203 2H5.56475C4.15472 2 2.99805 3.28289 2.99805 4.86184V19.1491C2.99805 20.7171 4.15472 22.011 5.56475 22.011H18.4203C19.8304 22.011 20.987 20.7281 20.987 19.1491V4.86184C20.987 3.29386 19.8304 2 18.4203 2ZM10.6761 10.0373C10.6761 9.3136 11.26 8.73246 11.987 8.73246C12.7141 8.73246 13.2979 9.3136 13.2979 10.0373C13.2979 10.761 12.7141 11.3421 11.987 11.3421C11.26 11.3421 10.6761 10.761 10.6761 10.0373ZM13.3089 14.1491C13.3089 14.8728 12.7251 15.4539 11.998 15.4539C11.271 15.4539 10.6872 14.8728 10.6872 14.1491C10.6872 13.4254 11.271 12.8443 11.998 12.8443C12.7251 12.8443 13.3089 13.4254 13.3089 14.1491ZM6.73244 11.3421C6.00539 11.3421 5.42155 10.761 5.42155 10.0373C5.42155 9.3136 6.00539 8.73246 6.73244 8.73246C7.45949 8.73246 8.04333 9.3136 8.04333 10.0373C8.04333 10.761 7.45949 11.3421 6.73244 11.3421ZM18.211 6.95614H5.91726C5.64187 6.95614 5.42155 6.75877 5.42155 6.50658V4.56579C5.42155 4.3136 5.64187 4.11623 5.91726 4.11623H18.222C18.4974 4.11623 18.7178 4.3136 18.7178 4.56579V6.50658C18.7178 6.75877 18.4974 6.95614 18.222 6.95614H18.211ZM17.2526 8.72149C17.9797 8.72149 18.5635 9.30263 18.5635 10.0263C18.5635 10.75 17.9797 11.3311 17.2526 11.3311C16.5256 11.3311 15.9417 10.75 15.9417 10.0263C15.9417 9.30263 16.5256 8.72149 17.2526 8.72149ZM6.73244 12.8333C7.45949 12.8333 8.04333 13.4145 8.04333 14.1382C8.04333 14.8618 7.45949 15.443 6.73244 15.443C6.00539 15.443 5.42155 14.8618 5.42155 14.1382C5.42155 13.4145 6.00539 12.8333 6.73244 12.8333ZM13.3089 18.261C13.3089 18.9847 12.7251 19.5658 11.998 19.5658C11.271 19.5658 10.6872 18.9847 10.6872 18.261C10.6872 17.5373 11.271 16.9561 11.998 16.9561C12.7251 16.9561 13.3089 17.5373 13.3089 18.261ZM6.73244 16.9561C7.45949 16.9561 8.04333 17.5373 8.04333 18.261C8.04333 18.9847 7.45949 19.5658 6.73244 19.5658C6.00539 19.5658 5.42155 18.9847 5.42155 18.261C5.42155 17.5373 6.00539 16.9561 6.73244 16.9561ZM15.9307 18.261V14.1382C15.9307 13.4145 16.5146 12.8333 17.2416 12.8333C17.9687 12.8333 18.5525 13.4145 18.5525 14.1382V18.261C18.5525 18.9847 17.9687 19.5658 17.2416 19.5658C16.5146 19.5658 15.9307 18.9847 15.9307 18.261Z" fill="black"/>
</g>
<defs>
<clipPath id="clip0_2526_16770">
<rect fill="white" height="20" transform="translate(3 2)" width="18"/>
</clipPath>
</defs>
</svg>